%TF.GenerationSoftware,KiCad,Pcbnew,7.0.8*%
%TF.CreationDate,2024-10-03T16:47:23-07:00*%
%TF.ProjectId,lab6PCB,6c616236-5043-4422-9e6b-696361645f70,v01*%
%TF.SameCoordinates,Original*%
%TF.FileFunction,Copper,L2,Bot*%
%TF.FilePolarity,Positive*%
%FSLAX46Y46*%
G04 Gerber Fmt 4.6, Leading zero omitted, Abs format (unit mm)*
G04 Created by KiCad (PCBNEW 7.0.8) date 2024-10-03 16:47:23*
%MOMM*%
%LPD*%
G01*
G04 APERTURE LIST*
%TA.AperFunction,ComponentPad*%
%ADD10R,1.700000X1.700000*%
%TD*%
%TA.AperFunction,ComponentPad*%
%ADD11O,1.700000X1.700000*%
%TD*%
%TA.AperFunction,ViaPad*%
%ADD12C,0.800000*%
%TD*%
G04 APERTURE END LIST*
D10*
%TO.P,J2,1,Pin_1*%
%TO.N,unconnected-(J2-Pin_1-Pad1)*%
X162306000Y-128209000D03*
D11*
%TO.P,J2,2,Pin_2*%
%TO.N,unconnected-(J2-Pin_2-Pad2)*%
X162306000Y-130749000D03*
%TO.P,J2,3,Pin_3*%
%TO.N,unconnected-(J2-Pin_3-Pad3)*%
X162306000Y-133289000D03*
%TO.P,J2,4,Pin_4*%
%TO.N,unconnected-(J2-Pin_4-Pad4)*%
X162306000Y-135829000D03*
%TO.P,J2,5,Pin_5*%
%TO.N,unconnected-(J2-Pin_5-Pad5)*%
X162306000Y-138369000D03*
%TO.P,J2,6,Pin_6*%
%TO.N,unconnected-(J2-Pin_6-Pad6)*%
X162306000Y-140909000D03*
%TO.P,J2,7,Pin_7*%
%TO.N,unconnected-(J2-Pin_7-Pad7)*%
X162306000Y-143449000D03*
%TO.P,J2,8,Pin_8*%
%TO.N,unconnected-(J2-Pin_8-Pad8)*%
X162306000Y-145989000D03*
%TD*%
D10*
%TO.P,J1,1,Pin_1*%
%TO.N,unconnected-(J1-Pin_1-Pad1)*%
X139446000Y-128209000D03*
D11*
%TO.P,J1,2,Pin_2*%
%TO.N,unconnected-(J1-Pin_2-Pad2)*%
X139446000Y-130749000D03*
%TO.P,J1,3,Pin_3*%
%TO.N,/CS*%
X139446000Y-133289000D03*
%TO.P,J1,4,Pin_4*%
%TO.N,/SCLK*%
X139446000Y-135829000D03*
%TO.P,J1,5,Pin_5*%
%TO.N,/CIPO*%
X139446000Y-138369000D03*
%TO.P,J1,6,Pin_6*%
%TO.N,/COPI*%
X139446000Y-140909000D03*
%TO.P,J1,7,Pin_7*%
%TO.N,+3.3V*%
X139446000Y-143449000D03*
%TO.P,J1,8,Pin_8*%
%TO.N,GND*%
X139446000Y-145989000D03*
%TD*%
D12*
%TO.N,GND*%
X151384000Y-129921000D03*
X155575000Y-129921000D03*
%TD*%
%TA.AperFunction,Conductor*%
%TO.N,GND*%
G36*
X163391539Y-121356185D02*
G01*
X163437294Y-121408989D01*
X163448500Y-121460500D01*
X163448500Y-126755322D01*
X163428815Y-126822361D01*
X163376011Y-126868116D01*
X163306853Y-126878060D01*
X163281169Y-126871505D01*
X163263481Y-126864908D01*
X163263483Y-126864908D01*
X163203883Y-126858501D01*
X163203881Y-126858500D01*
X163203873Y-126858500D01*
X163203864Y-126858500D01*
X161408129Y-126858500D01*
X161408123Y-126858501D01*
X161348516Y-126864908D01*
X161213671Y-126915202D01*
X161213664Y-126915206D01*
X161098455Y-127001452D01*
X161098452Y-127001455D01*
X161012206Y-127116664D01*
X161012202Y-127116671D01*
X160961908Y-127251517D01*
X160955501Y-127311116D01*
X160955501Y-127311123D01*
X160955500Y-127311135D01*
X160955500Y-129106870D01*
X160955501Y-129106876D01*
X160961908Y-129166483D01*
X161012202Y-129301328D01*
X161012206Y-129301335D01*
X161098452Y-129416544D01*
X161098455Y-129416547D01*
X161213664Y-129502793D01*
X161213671Y-129502797D01*
X161345081Y-129551810D01*
X161401015Y-129593681D01*
X161425432Y-129659145D01*
X161410580Y-129727418D01*
X161389430Y-129755673D01*
X161267503Y-129877600D01*
X161131965Y-130071169D01*
X161131964Y-130071171D01*
X161032098Y-130285335D01*
X161032094Y-130285344D01*
X160970938Y-130513586D01*
X160970936Y-130513596D01*
X160950341Y-130748999D01*
X160950341Y-130749000D01*
X160970936Y-130984403D01*
X160970938Y-130984413D01*
X161032094Y-131212655D01*
X161032096Y-131212659D01*
X161032097Y-131212663D01*
X161131965Y-131426830D01*
X161131967Y-131426834D01*
X161267501Y-131620395D01*
X161267506Y-131620402D01*
X161434597Y-131787493D01*
X161434603Y-131787498D01*
X161620158Y-131917425D01*
X161663783Y-131972002D01*
X161670977Y-132041500D01*
X161639454Y-132103855D01*
X161620158Y-132120575D01*
X161434597Y-132250505D01*
X161267505Y-132417597D01*
X161131965Y-132611169D01*
X161131964Y-132611171D01*
X161032098Y-132825335D01*
X161032094Y-132825344D01*
X160970938Y-133053586D01*
X160970936Y-133053596D01*
X160950341Y-133288999D01*
X160950341Y-133289000D01*
X160970936Y-133524403D01*
X160970938Y-133524413D01*
X161032094Y-133752655D01*
X161032096Y-133752659D01*
X161032097Y-133752663D01*
X161131965Y-133966830D01*
X161131967Y-133966834D01*
X161267501Y-134160395D01*
X161267506Y-134160402D01*
X161434597Y-134327493D01*
X161434603Y-134327498D01*
X161620158Y-134457425D01*
X161663783Y-134512002D01*
X161670977Y-134581500D01*
X161639454Y-134643855D01*
X161620158Y-134660575D01*
X161434597Y-134790505D01*
X161267505Y-134957597D01*
X161131965Y-135151169D01*
X161131964Y-135151171D01*
X161032098Y-135365335D01*
X161032094Y-135365344D01*
X160970938Y-135593586D01*
X160970936Y-135593596D01*
X160950341Y-135828999D01*
X160950341Y-135829000D01*
X160970936Y-136064403D01*
X160970938Y-136064413D01*
X161032094Y-136292655D01*
X161032096Y-136292659D01*
X161032097Y-136292663D01*
X161131965Y-136506830D01*
X161131967Y-136506834D01*
X161267501Y-136700395D01*
X161267506Y-136700402D01*
X161434597Y-136867493D01*
X161434603Y-136867498D01*
X161620158Y-136997425D01*
X161663783Y-137052002D01*
X161670977Y-137121500D01*
X161639454Y-137183855D01*
X161620158Y-137200575D01*
X161434597Y-137330505D01*
X161267505Y-137497597D01*
X161131965Y-137691169D01*
X161131964Y-137691171D01*
X161032098Y-137905335D01*
X161032094Y-137905344D01*
X160970938Y-138133586D01*
X160970936Y-138133596D01*
X160950341Y-138368999D01*
X160950341Y-138369000D01*
X160970936Y-138604403D01*
X160970938Y-138604413D01*
X161032094Y-138832655D01*
X161032096Y-138832659D01*
X161032097Y-138832663D01*
X161131965Y-139046830D01*
X161131967Y-139046834D01*
X161267501Y-139240395D01*
X161267506Y-139240402D01*
X161434597Y-139407493D01*
X161434603Y-139407498D01*
X161620158Y-139537425D01*
X161663783Y-139592002D01*
X161670977Y-139661500D01*
X161639454Y-139723855D01*
X161620158Y-139740575D01*
X161434597Y-139870505D01*
X161267505Y-140037597D01*
X161131965Y-140231169D01*
X161131964Y-140231171D01*
X161032098Y-140445335D01*
X161032094Y-140445344D01*
X160970938Y-140673586D01*
X160970936Y-140673596D01*
X160950341Y-140908999D01*
X160950341Y-140909000D01*
X160970936Y-141144403D01*
X160970938Y-141144413D01*
X161032094Y-141372655D01*
X161032096Y-141372659D01*
X161032097Y-141372663D01*
X161131965Y-141586830D01*
X161131967Y-141586834D01*
X161267501Y-141780395D01*
X161267506Y-141780402D01*
X161434597Y-141947493D01*
X161434603Y-141947498D01*
X161620158Y-142077425D01*
X161663783Y-142132002D01*
X161670977Y-142201500D01*
X161639454Y-142263855D01*
X161620158Y-142280575D01*
X161434597Y-142410505D01*
X161267505Y-142577597D01*
X161131965Y-142771169D01*
X161131964Y-142771171D01*
X161032098Y-142985335D01*
X161032094Y-142985344D01*
X160970938Y-143213586D01*
X160970936Y-143213596D01*
X160950341Y-143448999D01*
X160950341Y-143449000D01*
X160970936Y-143684403D01*
X160970938Y-143684413D01*
X161032094Y-143912655D01*
X161032096Y-143912659D01*
X161032097Y-143912663D01*
X161131965Y-144126830D01*
X161131967Y-144126834D01*
X161267501Y-144320395D01*
X161267506Y-144320402D01*
X161434597Y-144487493D01*
X161434603Y-144487498D01*
X161620158Y-144617425D01*
X161663783Y-144672002D01*
X161670977Y-144741500D01*
X161639454Y-144803855D01*
X161620158Y-144820575D01*
X161434597Y-144950505D01*
X161267505Y-145117597D01*
X161131965Y-145311169D01*
X161131964Y-145311171D01*
X161032098Y-145525335D01*
X161032094Y-145525344D01*
X160970938Y-145753586D01*
X160970936Y-145753596D01*
X160950341Y-145988999D01*
X160950341Y-145989000D01*
X160970936Y-146224403D01*
X160970938Y-146224413D01*
X161032094Y-146452655D01*
X161032096Y-146452659D01*
X161032097Y-146452663D01*
X161131847Y-146666578D01*
X161131965Y-146666830D01*
X161131967Y-146666834D01*
X161240281Y-146821521D01*
X161267505Y-146860401D01*
X161434599Y-147027495D01*
X161473952Y-147055050D01*
X161628165Y-147163032D01*
X161628167Y-147163033D01*
X161628170Y-147163035D01*
X161842337Y-147262903D01*
X162070592Y-147324063D01*
X162258918Y-147340539D01*
X162305999Y-147344659D01*
X162306000Y-147344659D01*
X162306001Y-147344659D01*
X162345234Y-147341226D01*
X162541408Y-147324063D01*
X162769663Y-147262903D01*
X162983830Y-147163035D01*
X163177401Y-147027495D01*
X163236819Y-146968077D01*
X163298142Y-146934592D01*
X163367834Y-146939576D01*
X163423767Y-146981448D01*
X163448184Y-147046912D01*
X163448500Y-147055758D01*
X163448500Y-149557500D01*
X163428815Y-149624539D01*
X163376011Y-149670294D01*
X163324500Y-149681500D01*
X138427500Y-149681500D01*
X138360461Y-149661815D01*
X138314706Y-149609011D01*
X138303500Y-149557500D01*
X138303500Y-147055050D01*
X138323185Y-146988011D01*
X138375989Y-146942256D01*
X138445147Y-146932312D01*
X138508703Y-146961337D01*
X138515181Y-146967369D01*
X138574917Y-147027105D01*
X138768421Y-147162600D01*
X138982507Y-147262429D01*
X138982516Y-147262433D01*
X139196000Y-147319634D01*
X139196000Y-146424501D01*
X139303685Y-146473680D01*
X139410237Y-146489000D01*
X139481763Y-146489000D01*
X139588315Y-146473680D01*
X139696000Y-146424501D01*
X139696000Y-147319633D01*
X139909483Y-147262433D01*
X139909492Y-147262429D01*
X140123578Y-147162600D01*
X140317082Y-147027105D01*
X140484105Y-146860082D01*
X140619600Y-146666578D01*
X140719429Y-146452492D01*
X140719432Y-146452486D01*
X140776636Y-146239000D01*
X139879686Y-146239000D01*
X139905493Y-146198844D01*
X139946000Y-146060889D01*
X139946000Y-145917111D01*
X139905493Y-145779156D01*
X139879686Y-145739000D01*
X140776636Y-145739000D01*
X140776635Y-145738999D01*
X140719432Y-145525513D01*
X140719429Y-145525507D01*
X140619600Y-145311422D01*
X140619599Y-145311420D01*
X140484113Y-145117926D01*
X140484108Y-145117920D01*
X140317078Y-144950890D01*
X140131405Y-144820879D01*
X140087780Y-144766302D01*
X140080588Y-144696804D01*
X140112110Y-144634449D01*
X140131406Y-144617730D01*
X140277037Y-144515758D01*
X140317401Y-144487495D01*
X140484495Y-144320401D01*
X140620035Y-144126830D01*
X140719903Y-143912663D01*
X140781063Y-143684408D01*
X140801659Y-143449000D01*
X140781063Y-143213592D01*
X140719903Y-142985337D01*
X140620035Y-142771171D01*
X140484495Y-142577599D01*
X140484494Y-142577597D01*
X140317402Y-142410506D01*
X140317396Y-142410501D01*
X140131842Y-142280575D01*
X140088217Y-142225998D01*
X140081023Y-142156500D01*
X140112546Y-142094145D01*
X140131842Y-142077425D01*
X140277037Y-141975758D01*
X140317401Y-141947495D01*
X140484495Y-141780401D01*
X140620035Y-141586830D01*
X140719903Y-141372663D01*
X140781063Y-141144408D01*
X140801659Y-140909000D01*
X140781063Y-140673592D01*
X140719903Y-140445337D01*
X140620035Y-140231171D01*
X140484495Y-140037599D01*
X140484494Y-140037597D01*
X140317402Y-139870506D01*
X140317396Y-139870501D01*
X140131842Y-139740575D01*
X140088217Y-139685998D01*
X140081023Y-139616500D01*
X140112546Y-139554145D01*
X140131842Y-139537425D01*
X140277037Y-139435758D01*
X140317401Y-139407495D01*
X140484495Y-139240401D01*
X140620035Y-139046830D01*
X140719903Y-138832663D01*
X140781063Y-138604408D01*
X140801659Y-138369000D01*
X140781063Y-138133592D01*
X140719903Y-137905337D01*
X140620035Y-137691171D01*
X140484495Y-137497599D01*
X140484494Y-137497597D01*
X140317402Y-137330506D01*
X140317396Y-137330501D01*
X140131842Y-137200575D01*
X140088217Y-137145998D01*
X140081023Y-137076500D01*
X140112546Y-137014145D01*
X140131842Y-136997425D01*
X140277037Y-136895758D01*
X140317401Y-136867495D01*
X140484495Y-136700401D01*
X140620035Y-136506830D01*
X140719903Y-136292663D01*
X140781063Y-136064408D01*
X140801659Y-135829000D01*
X140781063Y-135593592D01*
X140719903Y-135365337D01*
X140620035Y-135151171D01*
X140484495Y-134957599D01*
X140484494Y-134957597D01*
X140317402Y-134790506D01*
X140317396Y-134790501D01*
X140131842Y-134660575D01*
X140088217Y-134605998D01*
X140081023Y-134536500D01*
X140112546Y-134474145D01*
X140131842Y-134457425D01*
X140277037Y-134355758D01*
X140317401Y-134327495D01*
X140484495Y-134160401D01*
X140620035Y-133966830D01*
X140719903Y-133752663D01*
X140781063Y-133524408D01*
X140801659Y-133289000D01*
X140781063Y-133053592D01*
X140719903Y-132825337D01*
X140620035Y-132611171D01*
X140484495Y-132417599D01*
X140484494Y-132417597D01*
X140317402Y-132250506D01*
X140317396Y-132250501D01*
X140131842Y-132120575D01*
X140088217Y-132065998D01*
X140081023Y-131996500D01*
X140112546Y-131934145D01*
X140131842Y-131917425D01*
X140277037Y-131815758D01*
X140317401Y-131787495D01*
X140484495Y-131620401D01*
X140620035Y-131426830D01*
X140719903Y-131212663D01*
X140781063Y-130984408D01*
X140801659Y-130749000D01*
X140781063Y-130513592D01*
X140719903Y-130285337D01*
X140620035Y-130071171D01*
X140484495Y-129877599D01*
X140362567Y-129755671D01*
X140329084Y-129694351D01*
X140334068Y-129624659D01*
X140375939Y-129568725D01*
X140406915Y-129551810D01*
X140538331Y-129502796D01*
X140653546Y-129416546D01*
X140739796Y-129301331D01*
X140790091Y-129166483D01*
X140796500Y-129106873D01*
X140796499Y-127311128D01*
X140790091Y-127251517D01*
X140739796Y-127116669D01*
X140739795Y-127116668D01*
X140739793Y-127116664D01*
X140653547Y-127001455D01*
X140653544Y-127001452D01*
X140538335Y-126915206D01*
X140538328Y-126915202D01*
X140403482Y-126864908D01*
X140403483Y-126864908D01*
X140343883Y-126858501D01*
X140343881Y-126858500D01*
X140343873Y-126858500D01*
X140343864Y-126858500D01*
X138548129Y-126858500D01*
X138548123Y-126858501D01*
X138488517Y-126864908D01*
X138470831Y-126871505D01*
X138401139Y-126876488D01*
X138339817Y-126843001D01*
X138306333Y-126781677D01*
X138303500Y-126755322D01*
X138303500Y-121460500D01*
X138323185Y-121393461D01*
X138375989Y-121347706D01*
X138427500Y-121336500D01*
X163324500Y-121336500D01*
X163391539Y-121356185D01*
G37*
%TD.AperFunction*%
%TD*%
M02*
