%TF.GenerationSoftware,KiCad,Pcbnew,7.0.8*%
%TF.CreationDate,2024-10-03T16:47:23-07:00*%
%TF.ProjectId,lab6PCB,6c616236-5043-4422-9e6b-696361645f70,v01*%
%TF.SameCoordinates,Original*%
%TF.FileFunction,Copper,L1,Top*%
%TF.FilePolarity,Positive*%
%FSLAX46Y46*%
G04 Gerber Fmt 4.6, Leading zero omitted, Abs format (unit mm)*
G04 Created by KiCad (PCBNEW 7.0.8) date 2024-10-03 16:47:23*
%MOMM*%
%LPD*%
G01*
G04 APERTURE LIST*
G04 Aperture macros list*
%AMRoundRect*
0 Rectangle with rounded corners*
0 $1 Rounding radius*
0 $2 $3 $4 $5 $6 $7 $8 $9 X,Y pos of 4 corners*
0 Add a 4 corners polygon primitive as box body*
4,1,4,$2,$3,$4,$5,$6,$7,$8,$9,$2,$3,0*
0 Add four circle primitives for the rounded corners*
1,1,$1+$1,$2,$3*
1,1,$1+$1,$4,$5*
1,1,$1+$1,$6,$7*
1,1,$1+$1,$8,$9*
0 Add four rect primitives between the rounded corners*
20,1,$1+$1,$2,$3,$4,$5,0*
20,1,$1+$1,$4,$5,$6,$7,0*
20,1,$1+$1,$6,$7,$8,$9,0*
20,1,$1+$1,$8,$9,$2,$3,0*%
G04 Aperture macros list end*
%ADD10C,0.250000*%
%TA.AperFunction,NonConductor*%
%ADD11C,0.250000*%
%TD*%
%TA.AperFunction,SMDPad,CuDef*%
%ADD12RoundRect,0.180000X-0.710000X-0.180000X0.710000X-0.180000X0.710000X0.180000X-0.710000X0.180000X0*%
%TD*%
%TA.AperFunction,SMDPad,CuDef*%
%ADD13RoundRect,0.250000X-0.350000X-0.450000X0.350000X-0.450000X0.350000X0.450000X-0.350000X0.450000X0*%
%TD*%
%TA.AperFunction,ComponentPad*%
%ADD14R,1.700000X1.700000*%
%TD*%
%TA.AperFunction,ComponentPad*%
%ADD15O,1.700000X1.700000*%
%TD*%
%TA.AperFunction,SMDPad,CuDef*%
%ADD16RoundRect,0.250000X0.325000X0.450000X-0.325000X0.450000X-0.325000X-0.450000X0.325000X-0.450000X0*%
%TD*%
%TA.AperFunction,ViaPad*%
%ADD17C,0.800000*%
%TD*%
%TA.AperFunction,Conductor*%
%ADD18C,0.250000*%
%TD*%
G04 APERTURE END LIST*
D10*
D11*
X146738282Y-146819619D02*
X146738282Y-147533904D01*
X146738282Y-147533904D02*
X146690663Y-147676761D01*
X146690663Y-147676761D02*
X146595425Y-147772000D01*
X146595425Y-147772000D02*
X146452568Y-147819619D01*
X146452568Y-147819619D02*
X146357330Y-147819619D01*
X147214473Y-147724380D02*
X147262092Y-147772000D01*
X147262092Y-147772000D02*
X147214473Y-147819619D01*
X147214473Y-147819619D02*
X147166854Y-147772000D01*
X147166854Y-147772000D02*
X147214473Y-147724380D01*
X147214473Y-147724380D02*
X147214473Y-147819619D01*
X148262091Y-147819619D02*
X147928758Y-147343428D01*
X147690663Y-147819619D02*
X147690663Y-146819619D01*
X147690663Y-146819619D02*
X148071615Y-146819619D01*
X148071615Y-146819619D02*
X148166853Y-146867238D01*
X148166853Y-146867238D02*
X148214472Y-146914857D01*
X148214472Y-146914857D02*
X148262091Y-147010095D01*
X148262091Y-147010095D02*
X148262091Y-147152952D01*
X148262091Y-147152952D02*
X148214472Y-147248190D01*
X148214472Y-147248190D02*
X148166853Y-147295809D01*
X148166853Y-147295809D02*
X148071615Y-147343428D01*
X148071615Y-147343428D02*
X147690663Y-147343428D01*
X148690663Y-147724380D02*
X148738282Y-147772000D01*
X148738282Y-147772000D02*
X148690663Y-147819619D01*
X148690663Y-147819619D02*
X148643044Y-147772000D01*
X148643044Y-147772000D02*
X148690663Y-147724380D01*
X148690663Y-147724380D02*
X148690663Y-147819619D01*
X149166853Y-147819619D02*
X149166853Y-146819619D01*
X149166853Y-146819619D02*
X149547805Y-146819619D01*
X149547805Y-146819619D02*
X149643043Y-146867238D01*
X149643043Y-146867238D02*
X149690662Y-146914857D01*
X149690662Y-146914857D02*
X149738281Y-147010095D01*
X149738281Y-147010095D02*
X149738281Y-147152952D01*
X149738281Y-147152952D02*
X149690662Y-147248190D01*
X149690662Y-147248190D02*
X149643043Y-147295809D01*
X149643043Y-147295809D02*
X149547805Y-147343428D01*
X149547805Y-147343428D02*
X149166853Y-147343428D01*
X151119234Y-146819619D02*
X151309710Y-146819619D01*
X151309710Y-146819619D02*
X151404948Y-146867238D01*
X151404948Y-146867238D02*
X151500186Y-146962476D01*
X151500186Y-146962476D02*
X151547805Y-147152952D01*
X151547805Y-147152952D02*
X151547805Y-147486285D01*
X151547805Y-147486285D02*
X151500186Y-147676761D01*
X151500186Y-147676761D02*
X151404948Y-147772000D01*
X151404948Y-147772000D02*
X151309710Y-147819619D01*
X151309710Y-147819619D02*
X151119234Y-147819619D01*
X151119234Y-147819619D02*
X151023996Y-147772000D01*
X151023996Y-147772000D02*
X150928758Y-147676761D01*
X150928758Y-147676761D02*
X150881139Y-147486285D01*
X150881139Y-147486285D02*
X150881139Y-147152952D01*
X150881139Y-147152952D02*
X150928758Y-146962476D01*
X150928758Y-146962476D02*
X151023996Y-146867238D01*
X151023996Y-146867238D02*
X151119234Y-146819619D01*
X152404948Y-147772000D02*
X152309710Y-147819619D01*
X152309710Y-147819619D02*
X152119234Y-147819619D01*
X152119234Y-147819619D02*
X152023996Y-147772000D01*
X152023996Y-147772000D02*
X151976377Y-147724380D01*
X151976377Y-147724380D02*
X151928758Y-147629142D01*
X151928758Y-147629142D02*
X151928758Y-147343428D01*
X151928758Y-147343428D02*
X151976377Y-147248190D01*
X151976377Y-147248190D02*
X152023996Y-147200571D01*
X152023996Y-147200571D02*
X152119234Y-147152952D01*
X152119234Y-147152952D02*
X152309710Y-147152952D01*
X152309710Y-147152952D02*
X152404948Y-147200571D01*
X152690663Y-147152952D02*
X153071615Y-147152952D01*
X152833520Y-146819619D02*
X152833520Y-147676761D01*
X152833520Y-147676761D02*
X152881139Y-147772000D01*
X152881139Y-147772000D02*
X152976377Y-147819619D01*
X152976377Y-147819619D02*
X153071615Y-147819619D01*
X153404949Y-147724380D02*
X153452568Y-147772000D01*
X153452568Y-147772000D02*
X153404949Y-147819619D01*
X153404949Y-147819619D02*
X153357330Y-147772000D01*
X153357330Y-147772000D02*
X153404949Y-147724380D01*
X153404949Y-147724380D02*
X153404949Y-147819619D01*
X153833520Y-146914857D02*
X153881139Y-146867238D01*
X153881139Y-146867238D02*
X153976377Y-146819619D01*
X153976377Y-146819619D02*
X154214472Y-146819619D01*
X154214472Y-146819619D02*
X154309710Y-146867238D01*
X154309710Y-146867238D02*
X154357329Y-146914857D01*
X154357329Y-146914857D02*
X154404948Y-147010095D01*
X154404948Y-147010095D02*
X154404948Y-147105333D01*
X154404948Y-147105333D02*
X154357329Y-147248190D01*
X154357329Y-147248190D02*
X153785901Y-147819619D01*
X153785901Y-147819619D02*
X154404948Y-147819619D01*
X155023996Y-146819619D02*
X155119234Y-146819619D01*
X155119234Y-146819619D02*
X155214472Y-146867238D01*
X155214472Y-146867238D02*
X155262091Y-146914857D01*
X155262091Y-146914857D02*
X155309710Y-147010095D01*
X155309710Y-147010095D02*
X155357329Y-147200571D01*
X155357329Y-147200571D02*
X155357329Y-147438666D01*
X155357329Y-147438666D02*
X155309710Y-147629142D01*
X155309710Y-147629142D02*
X155262091Y-147724380D01*
X155262091Y-147724380D02*
X155214472Y-147772000D01*
X155214472Y-147772000D02*
X155119234Y-147819619D01*
X155119234Y-147819619D02*
X155023996Y-147819619D01*
X155023996Y-147819619D02*
X154928758Y-147772000D01*
X154928758Y-147772000D02*
X154881139Y-147724380D01*
X154881139Y-147724380D02*
X154833520Y-147629142D01*
X154833520Y-147629142D02*
X154785901Y-147438666D01*
X154785901Y-147438666D02*
X154785901Y-147200571D01*
X154785901Y-147200571D02*
X154833520Y-147010095D01*
X154833520Y-147010095D02*
X154881139Y-146914857D01*
X154881139Y-146914857D02*
X154928758Y-146867238D01*
X154928758Y-146867238D02*
X155023996Y-146819619D01*
X155738282Y-146914857D02*
X155785901Y-146867238D01*
X155785901Y-146867238D02*
X155881139Y-146819619D01*
X155881139Y-146819619D02*
X156119234Y-146819619D01*
X156119234Y-146819619D02*
X156214472Y-146867238D01*
X156214472Y-146867238D02*
X156262091Y-146914857D01*
X156262091Y-146914857D02*
X156309710Y-147010095D01*
X156309710Y-147010095D02*
X156309710Y-147105333D01*
X156309710Y-147105333D02*
X156262091Y-147248190D01*
X156262091Y-147248190D02*
X155690663Y-147819619D01*
X155690663Y-147819619D02*
X156309710Y-147819619D01*
X157166853Y-147152952D02*
X157166853Y-147819619D01*
X156928758Y-146772000D02*
X156690663Y-147486285D01*
X156690663Y-147486285D02*
X157309710Y-147486285D01*
D12*
%TO.P,U1,1,VDDD*%
%TO.N,+3.3V*%
X148917000Y-123849500D03*
%TO.P,U1,2,CE*%
%TO.N,/CS*%
X148917000Y-125119500D03*
%TO.P,U1,3,SCLK*%
%TO.N,/SCLK*%
X148917000Y-126389500D03*
%TO.P,U1,4,GND*%
%TO.N,GND*%
X148917000Y-127659500D03*
%TO.P,U1,5,SDO*%
%TO.N,/CIPO*%
X153597000Y-127659500D03*
%TO.P,U1,6,SDI*%
%TO.N,/COPI*%
X153597000Y-126389500D03*
%TO.P,U1,7,SERMODE*%
%TO.N,+3.3V*%
X153597000Y-125119500D03*
%TO.P,U1,8,VDDA*%
X153597000Y-123849500D03*
%TD*%
D13*
%TO.P,R5,2*%
%TO.N,GND*%
X155178000Y-137668000D03*
%TO.P,R5,1*%
%TO.N,Net-(D5-K)*%
X153178000Y-137668000D03*
%TD*%
%TO.P,R4,1*%
%TO.N,Net-(D4-K)*%
X153178000Y-140335000D03*
%TO.P,R4,2*%
%TO.N,GND*%
X155178000Y-140335000D03*
%TD*%
%TO.P,R3,1*%
%TO.N,Net-(D3-K)*%
X153178000Y-132588000D03*
%TO.P,R3,2*%
%TO.N,GND*%
X155178000Y-132588000D03*
%TD*%
%TO.P,R2,2*%
%TO.N,GND*%
X155178000Y-135255000D03*
%TO.P,R2,1*%
%TO.N,Net-(D2-K)*%
X153178000Y-135255000D03*
%TD*%
%TO.P,R1,2*%
%TO.N,GND*%
X155178000Y-142748000D03*
%TO.P,R1,1*%
%TO.N,Net-(D1-K)*%
X153178000Y-142748000D03*
%TD*%
D14*
%TO.P,J2,1,Pin_1*%
%TO.N,unconnected-(J2-Pin_1-Pad1)*%
X162306000Y-128209000D03*
D15*
%TO.P,J2,2,Pin_2*%
%TO.N,unconnected-(J2-Pin_2-Pad2)*%
X162306000Y-130749000D03*
%TO.P,J2,3,Pin_3*%
%TO.N,unconnected-(J2-Pin_3-Pad3)*%
X162306000Y-133289000D03*
%TO.P,J2,4,Pin_4*%
%TO.N,unconnected-(J2-Pin_4-Pad4)*%
X162306000Y-135829000D03*
%TO.P,J2,5,Pin_5*%
%TO.N,unconnected-(J2-Pin_5-Pad5)*%
X162306000Y-138369000D03*
%TO.P,J2,6,Pin_6*%
%TO.N,unconnected-(J2-Pin_6-Pad6)*%
X162306000Y-140909000D03*
%TO.P,J2,7,Pin_7*%
%TO.N,unconnected-(J2-Pin_7-Pad7)*%
X162306000Y-143449000D03*
%TO.P,J2,8,Pin_8*%
%TO.N,unconnected-(J2-Pin_8-Pad8)*%
X162306000Y-145989000D03*
%TD*%
D14*
%TO.P,J1,1,Pin_1*%
%TO.N,unconnected-(J1-Pin_1-Pad1)*%
X139446000Y-128209000D03*
D15*
%TO.P,J1,2,Pin_2*%
%TO.N,unconnected-(J1-Pin_2-Pad2)*%
X139446000Y-130749000D03*
%TO.P,J1,3,Pin_3*%
%TO.N,/CS*%
X139446000Y-133289000D03*
%TO.P,J1,4,Pin_4*%
%TO.N,/SCLK*%
X139446000Y-135829000D03*
%TO.P,J1,5,Pin_5*%
%TO.N,/CIPO*%
X139446000Y-138369000D03*
%TO.P,J1,6,Pin_6*%
%TO.N,/COPI*%
X139446000Y-140909000D03*
%TO.P,J1,7,Pin_7*%
%TO.N,+3.3V*%
X139446000Y-143449000D03*
%TO.P,J1,8,Pin_8*%
%TO.N,GND*%
X139446000Y-145989000D03*
%TD*%
D16*
%TO.P,D5,2,A*%
%TO.N,/CIPO*%
X146676000Y-137668000D03*
%TO.P,D5,1,K*%
%TO.N,Net-(D5-K)*%
X148726000Y-137668000D03*
%TD*%
%TO.P,D4,2,A*%
%TO.N,/COPI*%
X146676000Y-140335000D03*
%TO.P,D4,1,K*%
%TO.N,Net-(D4-K)*%
X148726000Y-140335000D03*
%TD*%
%TO.P,D3,2,A*%
%TO.N,/CS*%
X146676000Y-132588000D03*
%TO.P,D3,1,K*%
%TO.N,Net-(D3-K)*%
X148726000Y-132588000D03*
%TD*%
%TO.P,D2,2,A*%
%TO.N,/SCLK*%
X146676000Y-135255000D03*
%TO.P,D2,1,K*%
%TO.N,Net-(D2-K)*%
X148726000Y-135255000D03*
%TD*%
%TO.P,D1,1,K*%
%TO.N,Net-(D1-K)*%
X148726000Y-142748000D03*
%TO.P,D1,2,A*%
%TO.N,+3.3V*%
X146676000Y-142748000D03*
%TD*%
D17*
%TO.N,GND*%
X151384000Y-129921000D03*
X155575000Y-129921000D03*
%TD*%
D18*
%TO.N,GND*%
X151178500Y-129921000D02*
X151384000Y-129921000D01*
X148917000Y-127659500D02*
X151178500Y-129921000D01*
X155178000Y-130318000D02*
X155575000Y-129921000D01*
X155178000Y-132588000D02*
X155178000Y-130318000D01*
X155178000Y-135255000D02*
X155178000Y-132588000D01*
X155178000Y-137668000D02*
X155178000Y-135255000D01*
X155178000Y-137668000D02*
X155178000Y-140335000D01*
X155178000Y-142748000D02*
X155178000Y-140335000D01*
%TO.N,+3.3V*%
X157607000Y-127889000D02*
X157607000Y-143511396D01*
X157607000Y-143511396D02*
X156084396Y-145034000D01*
X156084396Y-145034000D02*
X147699604Y-145034000D01*
%TO.N,/COPI*%
X147701000Y-141360000D02*
X147701000Y-143311174D01*
X147701000Y-143311174D02*
X148788826Y-144399000D01*
X148788826Y-144399000D02*
X156083000Y-144399000D01*
%TO.N,+3.3V*%
X146676000Y-142748000D02*
X146676000Y-144010396D01*
X146676000Y-144010396D02*
X147699604Y-145034000D01*
X154837500Y-125119500D02*
X153597000Y-125119500D01*
X157607000Y-127889000D02*
X154837500Y-125119500D01*
%TO.N,/COPI*%
X156845000Y-143637000D02*
X156845000Y-128747500D01*
X156083000Y-144399000D02*
X156845000Y-143637000D01*
X146676000Y-140335000D02*
X147701000Y-141360000D01*
X156845000Y-128747500D02*
X154487000Y-126389500D01*
X154487000Y-126389500D02*
X153597000Y-126389500D01*
%TO.N,/CIPO*%
X146676000Y-137668000D02*
X148064000Y-136280000D01*
X153766174Y-136280000D02*
X154178000Y-135868174D01*
X148064000Y-136280000D02*
X153766174Y-136280000D01*
X154178000Y-135868174D02*
X154178000Y-128240500D01*
X154178000Y-128240500D02*
X153597000Y-127659500D01*
%TO.N,GND*%
X155178000Y-135255000D02*
X155201000Y-135232000D01*
%TO.N,/SCLK*%
X146676000Y-135255000D02*
X147576000Y-134355000D01*
X147576000Y-134355000D02*
X147576000Y-127396322D01*
X148582822Y-126389500D02*
X148917000Y-126389500D01*
X147576000Y-127396322D02*
X148582822Y-126389500D01*
%TO.N,/CS*%
X146676000Y-132588000D02*
X146676000Y-126470500D01*
X146676000Y-126470500D02*
X148027000Y-125119500D01*
X148027000Y-125119500D02*
X148917000Y-125119500D01*
%TO.N,+3.3V*%
X148917000Y-123849500D02*
X153597000Y-123849500D01*
X153597000Y-125119500D02*
X153597000Y-123849500D01*
X139446000Y-143449000D02*
X145975000Y-143449000D01*
X145975000Y-143449000D02*
X146676000Y-142748000D01*
%TO.N,/COPI*%
X139446000Y-140909000D02*
X146102000Y-140909000D01*
X146102000Y-140909000D02*
X146676000Y-140335000D01*
%TO.N,/CIPO*%
X139446000Y-138369000D02*
X145975000Y-138369000D01*
X145975000Y-138369000D02*
X146676000Y-137668000D01*
%TO.N,/SCLK*%
X139446000Y-135829000D02*
X146102000Y-135829000D01*
X146102000Y-135829000D02*
X146676000Y-135255000D01*
%TO.N,/CS*%
X139446000Y-133289000D02*
X145975000Y-133289000D01*
X145975000Y-133289000D02*
X146676000Y-132588000D01*
%TO.N,GND*%
X155201000Y-140312000D02*
X155178000Y-140335000D01*
X155178000Y-137772000D02*
X155201000Y-137795000D01*
%TO.N,Net-(D1-K)*%
X153178000Y-142748000D02*
X148726000Y-142748000D01*
%TO.N,Net-(D4-K)*%
X153178000Y-140335000D02*
X148726000Y-140335000D01*
%TO.N,Net-(D5-K)*%
X153201000Y-137795000D02*
X148726000Y-137795000D01*
%TO.N,Net-(D2-K)*%
X153178000Y-135255000D02*
X148726000Y-135255000D01*
%TO.N,Net-(D3-K)*%
X153201000Y-132588000D02*
X148726000Y-132588000D01*
%TD*%
%TA.AperFunction,Conductor*%
%TO.N,GND*%
G36*
X163391539Y-121356185D02*
G01*
X163437294Y-121408989D01*
X163448500Y-121460500D01*
X163448500Y-126755322D01*
X163428815Y-126822361D01*
X163376011Y-126868116D01*
X163306853Y-126878060D01*
X163281169Y-126871505D01*
X163263481Y-126864908D01*
X163263483Y-126864908D01*
X163203883Y-126858501D01*
X163203881Y-126858500D01*
X163203873Y-126858500D01*
X163203864Y-126858500D01*
X161408129Y-126858500D01*
X161408123Y-126858501D01*
X161348516Y-126864908D01*
X161213671Y-126915202D01*
X161213664Y-126915206D01*
X161098455Y-127001452D01*
X161098452Y-127001455D01*
X161012206Y-127116664D01*
X161012202Y-127116671D01*
X160961908Y-127251517D01*
X160955501Y-127311116D01*
X160955501Y-127311123D01*
X160955500Y-127311135D01*
X160955500Y-129106870D01*
X160955501Y-129106876D01*
X160961908Y-129166483D01*
X161012202Y-129301328D01*
X161012206Y-129301335D01*
X161098452Y-129416544D01*
X161098455Y-129416547D01*
X161213664Y-129502793D01*
X161213671Y-129502797D01*
X161345081Y-129551810D01*
X161401015Y-129593681D01*
X161425432Y-129659145D01*
X161410580Y-129727418D01*
X161389430Y-129755673D01*
X161267503Y-129877600D01*
X161131965Y-130071169D01*
X161131964Y-130071171D01*
X161032098Y-130285335D01*
X161032094Y-130285344D01*
X160970938Y-130513586D01*
X160970936Y-130513596D01*
X160950341Y-130748999D01*
X160950341Y-130749000D01*
X160970936Y-130984403D01*
X160970938Y-130984413D01*
X161032094Y-131212655D01*
X161032096Y-131212659D01*
X161032097Y-131212663D01*
X161108400Y-131376294D01*
X161131965Y-131426830D01*
X161131967Y-131426834D01*
X161267501Y-131620395D01*
X161267506Y-131620402D01*
X161434597Y-131787493D01*
X161434603Y-131787498D01*
X161620158Y-131917425D01*
X161663783Y-131972002D01*
X161670977Y-132041500D01*
X161639454Y-132103855D01*
X161620158Y-132120575D01*
X161434597Y-132250505D01*
X161267505Y-132417597D01*
X161131965Y-132611169D01*
X161131964Y-132611171D01*
X161032098Y-132825335D01*
X161032094Y-132825344D01*
X160970938Y-133053586D01*
X160970936Y-133053596D01*
X160950341Y-133288999D01*
X160950341Y-133289000D01*
X160970936Y-133524403D01*
X160970938Y-133524413D01*
X161032094Y-133752655D01*
X161032096Y-133752659D01*
X161032097Y-133752663D01*
X161131965Y-133966830D01*
X161131967Y-133966834D01*
X161201050Y-134065494D01*
X161267501Y-134160396D01*
X161267506Y-134160402D01*
X161434597Y-134327493D01*
X161434603Y-134327498D01*
X161620158Y-134457425D01*
X161663783Y-134512002D01*
X161670977Y-134581500D01*
X161639454Y-134643855D01*
X161620158Y-134660575D01*
X161434597Y-134790505D01*
X161267505Y-134957597D01*
X161131965Y-135151169D01*
X161131964Y-135151171D01*
X161032098Y-135365335D01*
X161032094Y-135365344D01*
X160970938Y-135593586D01*
X160970936Y-135593596D01*
X160950341Y-135828999D01*
X160950341Y-135829000D01*
X160970936Y-136064403D01*
X160970938Y-136064413D01*
X161032094Y-136292655D01*
X161032096Y-136292659D01*
X161032097Y-136292663D01*
X161063168Y-136359295D01*
X161131965Y-136506830D01*
X161131967Y-136506834D01*
X161223222Y-136637158D01*
X161267501Y-136700396D01*
X161267506Y-136700402D01*
X161434597Y-136867493D01*
X161434603Y-136867498D01*
X161620158Y-136997425D01*
X161663783Y-137052002D01*
X161670977Y-137121500D01*
X161639454Y-137183855D01*
X161620158Y-137200575D01*
X161434597Y-137330505D01*
X161267505Y-137497597D01*
X161131965Y-137691169D01*
X161131964Y-137691171D01*
X161032098Y-137905335D01*
X161032094Y-137905344D01*
X160970938Y-138133586D01*
X160970936Y-138133596D01*
X160950341Y-138368999D01*
X160950341Y-138369000D01*
X160970936Y-138604403D01*
X160970938Y-138604413D01*
X161032094Y-138832655D01*
X161032096Y-138832659D01*
X161032097Y-138832663D01*
X161131965Y-139046830D01*
X161131967Y-139046834D01*
X161201050Y-139145494D01*
X161267501Y-139240396D01*
X161267506Y-139240402D01*
X161434597Y-139407493D01*
X161434603Y-139407498D01*
X161620158Y-139537425D01*
X161663783Y-139592002D01*
X161670977Y-139661500D01*
X161639454Y-139723855D01*
X161620158Y-139740575D01*
X161434597Y-139870505D01*
X161267505Y-140037597D01*
X161131965Y-140231169D01*
X161131964Y-140231171D01*
X161032098Y-140445335D01*
X161032094Y-140445344D01*
X160970938Y-140673586D01*
X160970936Y-140673596D01*
X160950341Y-140908999D01*
X160950341Y-140909000D01*
X160970936Y-141144403D01*
X160970938Y-141144413D01*
X161032094Y-141372655D01*
X161032096Y-141372659D01*
X161032097Y-141372663D01*
X161085837Y-141487909D01*
X161131965Y-141586830D01*
X161131967Y-141586834D01*
X161223222Y-141717158D01*
X161267501Y-141780396D01*
X161267506Y-141780402D01*
X161434597Y-141947493D01*
X161434603Y-141947498D01*
X161620158Y-142077425D01*
X161663783Y-142132002D01*
X161670977Y-142201500D01*
X161639454Y-142263855D01*
X161620158Y-142280575D01*
X161434597Y-142410505D01*
X161267505Y-142577597D01*
X161131965Y-142771169D01*
X161131964Y-142771171D01*
X161032098Y-142985335D01*
X161032094Y-142985344D01*
X160970938Y-143213586D01*
X160970936Y-143213596D01*
X160950341Y-143448999D01*
X160950341Y-143449000D01*
X160970936Y-143684403D01*
X160970938Y-143684413D01*
X161032094Y-143912655D01*
X161032096Y-143912659D01*
X161032097Y-143912663D01*
X161073934Y-144002382D01*
X161131965Y-144126830D01*
X161131967Y-144126834D01*
X161225761Y-144260784D01*
X161267501Y-144320396D01*
X161267506Y-144320402D01*
X161434597Y-144487493D01*
X161434603Y-144487498D01*
X161620158Y-144617425D01*
X161663783Y-144672002D01*
X161670977Y-144741500D01*
X161639454Y-144803855D01*
X161620158Y-144820575D01*
X161434597Y-144950505D01*
X161267505Y-145117597D01*
X161131965Y-145311169D01*
X161131964Y-145311171D01*
X161032098Y-145525335D01*
X161032094Y-145525344D01*
X160970938Y-145753586D01*
X160970936Y-145753596D01*
X160950341Y-145988999D01*
X160950341Y-145989000D01*
X160970936Y-146224403D01*
X160970938Y-146224413D01*
X161032094Y-146452655D01*
X161032096Y-146452659D01*
X161032097Y-146452663D01*
X161131847Y-146666578D01*
X161131965Y-146666830D01*
X161131967Y-146666834D01*
X161240281Y-146821521D01*
X161267505Y-146860401D01*
X161434599Y-147027495D01*
X161473952Y-147055050D01*
X161628165Y-147163032D01*
X161628167Y-147163033D01*
X161628170Y-147163035D01*
X161842337Y-147262903D01*
X162070592Y-147324063D01*
X162258918Y-147340539D01*
X162305999Y-147344659D01*
X162306000Y-147344659D01*
X162306001Y-147344659D01*
X162345234Y-147341226D01*
X162541408Y-147324063D01*
X162769663Y-147262903D01*
X162983830Y-147163035D01*
X163177401Y-147027495D01*
X163236819Y-146968077D01*
X163298142Y-146934592D01*
X163367834Y-146939576D01*
X163423767Y-146981448D01*
X163448184Y-147046912D01*
X163448500Y-147055758D01*
X163448500Y-149557500D01*
X163428815Y-149624539D01*
X163376011Y-149670294D01*
X163324500Y-149681500D01*
X138427500Y-149681500D01*
X138360461Y-149661815D01*
X138314706Y-149609011D01*
X138303500Y-149557500D01*
X138303500Y-147055050D01*
X138323185Y-146988011D01*
X138375989Y-146942256D01*
X138445147Y-146932312D01*
X138508703Y-146961337D01*
X138515181Y-146967369D01*
X138574917Y-147027105D01*
X138768421Y-147162600D01*
X138982507Y-147262429D01*
X138982516Y-147262433D01*
X139196000Y-147319634D01*
X139196000Y-146424501D01*
X139303685Y-146473680D01*
X139410237Y-146489000D01*
X139481763Y-146489000D01*
X139588315Y-146473680D01*
X139696000Y-146424501D01*
X139696000Y-147319633D01*
X139909483Y-147262433D01*
X139909492Y-147262429D01*
X140123578Y-147162600D01*
X140317082Y-147027105D01*
X140484105Y-146860082D01*
X140619600Y-146666578D01*
X140719429Y-146452492D01*
X140719432Y-146452486D01*
X140776636Y-146239000D01*
X139879686Y-146239000D01*
X139905493Y-146198844D01*
X139921801Y-146143304D01*
X145727879Y-146143304D01*
X145727879Y-148450311D01*
X157939161Y-148450311D01*
X157939161Y-146143304D01*
X145727879Y-146143304D01*
X139921801Y-146143304D01*
X139946000Y-146060889D01*
X139946000Y-145917111D01*
X139905493Y-145779156D01*
X139879686Y-145739000D01*
X140776636Y-145739000D01*
X140776635Y-145738999D01*
X140719432Y-145525513D01*
X140719429Y-145525507D01*
X140619600Y-145311422D01*
X140619599Y-145311420D01*
X140484113Y-145117926D01*
X140484108Y-145117920D01*
X140317078Y-144950890D01*
X140131405Y-144820879D01*
X140087780Y-144766302D01*
X140080588Y-144696804D01*
X140112110Y-144634449D01*
X140131406Y-144617730D01*
X140277037Y-144515758D01*
X140317401Y-144487495D01*
X140484495Y-144320401D01*
X140619652Y-144127377D01*
X140674229Y-144083752D01*
X140721227Y-144074500D01*
X145892257Y-144074500D01*
X145907877Y-144076224D01*
X145907904Y-144075939D01*
X145915662Y-144076672D01*
X145915662Y-144076671D01*
X145915667Y-144076673D01*
X145941790Y-144075852D01*
X146009412Y-144093418D01*
X146056804Y-144144758D01*
X146062444Y-144159944D01*
X146062465Y-144159936D01*
X146082490Y-144210515D01*
X146084382Y-144216043D01*
X146097381Y-144260784D01*
X146107580Y-144278030D01*
X146116138Y-144295499D01*
X146123514Y-144314128D01*
X146150898Y-144351819D01*
X146154106Y-144356703D01*
X146177827Y-144396812D01*
X146177833Y-144396820D01*
X146191990Y-144410976D01*
X146204628Y-144425772D01*
X146216405Y-144441982D01*
X146216406Y-144441983D01*
X146252309Y-144471684D01*
X146256620Y-144475606D01*
X146731515Y-144950501D01*
X147198798Y-145417784D01*
X147208623Y-145430048D01*
X147208844Y-145429866D01*
X147213814Y-145435873D01*
X147213817Y-145435876D01*
X147213818Y-145435877D01*
X147264255Y-145483241D01*
X147285134Y-145504120D01*
X147290608Y-145508366D01*
X147295046Y-145512156D01*
X147329022Y-145544062D01*
X147329026Y-145544064D01*
X147346577Y-145553713D01*
X147362835Y-145564392D01*
X147378668Y-145576674D01*
X147400619Y-145586172D01*
X147421441Y-145595183D01*
X147426685Y-145597752D01*
X147467512Y-145620197D01*
X147486916Y-145625179D01*
X147505314Y-145631478D01*
X147523709Y-145639438D01*
X147569733Y-145646726D01*
X147575436Y-145647907D01*
X147620585Y-145659500D01*
X147640620Y-145659500D01*
X147660017Y-145661026D01*
X147679800Y-145664160D01*
X147726188Y-145659775D01*
X147732026Y-145659500D01*
X156001653Y-145659500D01*
X156017273Y-145661224D01*
X156017300Y-145660939D01*
X156025056Y-145661671D01*
X156025063Y-145661673D01*
X156094210Y-145659500D01*
X156123746Y-145659500D01*
X156130624Y-145658630D01*
X156136437Y-145658172D01*
X156183023Y-145656709D01*
X156202265Y-145651117D01*
X156221308Y-145647174D01*
X156241188Y-145644664D01*
X156284518Y-145627507D01*
X156290042Y-145625617D01*
X156293792Y-145624527D01*
X156334786Y-145612618D01*
X156352025Y-145602422D01*
X156369499Y-145593862D01*
X156388123Y-145586488D01*
X156388123Y-145586487D01*
X156388128Y-145586486D01*
X156425845Y-145559082D01*
X156430701Y-145555892D01*
X156470816Y-145532170D01*
X156484985Y-145517999D01*
X156499775Y-145505368D01*
X156515983Y-145493594D01*
X156545695Y-145457676D01*
X156549608Y-145453376D01*
X157990787Y-144012198D01*
X158003042Y-144002382D01*
X158002859Y-144002160D01*
X158008866Y-143997188D01*
X158008877Y-143997182D01*
X158039775Y-143964278D01*
X158056227Y-143946760D01*
X158066671Y-143936314D01*
X158077120Y-143925867D01*
X158081379Y-143920374D01*
X158085152Y-143915957D01*
X158117062Y-143881978D01*
X158126713Y-143864420D01*
X158137396Y-143848157D01*
X158149673Y-143832332D01*
X158168185Y-143789549D01*
X158170738Y-143784337D01*
X158193197Y-143743488D01*
X158198180Y-143724076D01*
X158204481Y-143705676D01*
X158212437Y-143687292D01*
X158219729Y-143641248D01*
X158220906Y-143635567D01*
X158232500Y-143590415D01*
X158232500Y-143570379D01*
X158234027Y-143550978D01*
X158237160Y-143531200D01*
X158232775Y-143484811D01*
X158232500Y-143478973D01*
X158232500Y-127971737D01*
X158234224Y-127956123D01*
X158233938Y-127956096D01*
X158234672Y-127948333D01*
X158232500Y-127879202D01*
X158232500Y-127849651D01*
X158232500Y-127849650D01*
X158231629Y-127842759D01*
X158231172Y-127836945D01*
X158229709Y-127790374D01*
X158229709Y-127790372D01*
X158224120Y-127771137D01*
X158220174Y-127752084D01*
X158217664Y-127732208D01*
X158200501Y-127688859D01*
X158198614Y-127683346D01*
X158190498Y-127655412D01*
X158185617Y-127638610D01*
X158175421Y-127621369D01*
X158166860Y-127603893D01*
X158159486Y-127585269D01*
X158159486Y-127585267D01*
X158149474Y-127571488D01*
X158132083Y-127547550D01*
X158128900Y-127542705D01*
X158105170Y-127502579D01*
X158105165Y-127502573D01*
X158091005Y-127488413D01*
X158078370Y-127473620D01*
X158066593Y-127457412D01*
X158030693Y-127427713D01*
X158026381Y-127423790D01*
X155338303Y-124735712D01*
X155328480Y-124723450D01*
X155328259Y-124723634D01*
X155323286Y-124717623D01*
X155316785Y-124711518D01*
X155272864Y-124670273D01*
X155260751Y-124658160D01*
X155251975Y-124649383D01*
X155246486Y-124645125D01*
X155242061Y-124641347D01*
X155208082Y-124609438D01*
X155208080Y-124609436D01*
X155208077Y-124609435D01*
X155190529Y-124599788D01*
X155174263Y-124589104D01*
X155158433Y-124576825D01*
X155115668Y-124558318D01*
X155110422Y-124555748D01*
X155069593Y-124533303D01*
X155069592Y-124533302D01*
X155050193Y-124528322D01*
X155031781Y-124522018D01*
X155013398Y-124514062D01*
X155013394Y-124514061D01*
X155009188Y-124513395D01*
X155006159Y-124511959D01*
X155005904Y-124511885D01*
X155005915Y-124511843D01*
X154946054Y-124483464D01*
X154909124Y-124424151D01*
X154910124Y-124354289D01*
X154922469Y-124326777D01*
X154932106Y-124310837D01*
X154981269Y-124153064D01*
X154987500Y-124084498D01*
X154987500Y-123614502D01*
X154981269Y-123545936D01*
X154932106Y-123388163D01*
X154932105Y-123388161D01*
X154846617Y-123246745D01*
X154846613Y-123246740D01*
X154729759Y-123129886D01*
X154729754Y-123129882D01*
X154588338Y-123044394D01*
X154535746Y-123028006D01*
X154430564Y-122995231D01*
X154361998Y-122989000D01*
X152832002Y-122989000D01*
X152763436Y-122995231D01*
X152710845Y-123011618D01*
X152605661Y-123044394D01*
X152464245Y-123129882D01*
X152464240Y-123129886D01*
X152406446Y-123187681D01*
X152345123Y-123221166D01*
X152318765Y-123224000D01*
X150195235Y-123224000D01*
X150128196Y-123204315D01*
X150107554Y-123187681D01*
X150049759Y-123129886D01*
X150049754Y-123129882D01*
X149908338Y-123044394D01*
X149855746Y-123028006D01*
X149750564Y-122995231D01*
X149681998Y-122989000D01*
X148152002Y-122989000D01*
X148083436Y-122995231D01*
X148030845Y-123011618D01*
X147925661Y-123044394D01*
X147784245Y-123129882D01*
X147784240Y-123129886D01*
X147667386Y-123246740D01*
X147667382Y-123246745D01*
X147581894Y-123388161D01*
X147549118Y-123493345D01*
X147532731Y-123545936D01*
X147526500Y-123614502D01*
X147526500Y-124084498D01*
X147532731Y-124153064D01*
X147565506Y-124258246D01*
X147581894Y-124310838D01*
X147648096Y-124420351D01*
X147665932Y-124487906D01*
X147648096Y-124548649D01*
X147581895Y-124658160D01*
X147581893Y-124658163D01*
X147581094Y-124660730D01*
X147579703Y-124663030D01*
X147578814Y-124665006D01*
X147578574Y-124664898D01*
X147550390Y-124711518D01*
X146292208Y-125969699D01*
X146279951Y-125979520D01*
X146280134Y-125979741D01*
X146274123Y-125984713D01*
X146226772Y-126035136D01*
X146205889Y-126056019D01*
X146205877Y-126056032D01*
X146201621Y-126061517D01*
X146197837Y-126065947D01*
X146165937Y-126099918D01*
X146165936Y-126099920D01*
X146156284Y-126117476D01*
X146145610Y-126133726D01*
X146133329Y-126149561D01*
X146133324Y-126149568D01*
X146114815Y-126192338D01*
X146112245Y-126197584D01*
X146089803Y-126238406D01*
X146084822Y-126257807D01*
X146078521Y-126276210D01*
X146070562Y-126294602D01*
X146070561Y-126294605D01*
X146063271Y-126340627D01*
X146062087Y-126346346D01*
X146050501Y-126391472D01*
X146050500Y-126391482D01*
X146050500Y-126411516D01*
X146048973Y-126430915D01*
X146045840Y-126450694D01*
X146045840Y-126450695D01*
X146050225Y-126497083D01*
X146050500Y-126502921D01*
X146050500Y-131372362D01*
X146030815Y-131439401D01*
X145991598Y-131477899D01*
X145923288Y-131520033D01*
X145882342Y-131545289D01*
X145758289Y-131669342D01*
X145666187Y-131818663D01*
X145666186Y-131818666D01*
X145611001Y-131985203D01*
X145611001Y-131985204D01*
X145611000Y-131985204D01*
X145600500Y-132087983D01*
X145600500Y-132087991D01*
X145600500Y-132344979D01*
X145600501Y-132539500D01*
X145580817Y-132606539D01*
X145528013Y-132652294D01*
X145476501Y-132663500D01*
X140721227Y-132663500D01*
X140654188Y-132643815D01*
X140619652Y-132610623D01*
X140484494Y-132417597D01*
X140317402Y-132250506D01*
X140317396Y-132250501D01*
X140131842Y-132120575D01*
X140088217Y-132065998D01*
X140081023Y-131996500D01*
X140112546Y-131934145D01*
X140131842Y-131917425D01*
X140170993Y-131890011D01*
X140317401Y-131787495D01*
X140484495Y-131620401D01*
X140620035Y-131426830D01*
X140719903Y-131212663D01*
X140781063Y-130984408D01*
X140801659Y-130749000D01*
X140781063Y-130513592D01*
X140719903Y-130285337D01*
X140620035Y-130071171D01*
X140484495Y-129877599D01*
X140362567Y-129755671D01*
X140329084Y-129694351D01*
X140334068Y-129624659D01*
X140375939Y-129568725D01*
X140406915Y-129551810D01*
X140538331Y-129502796D01*
X140653546Y-129416546D01*
X140739796Y-129301331D01*
X140790091Y-129166483D01*
X140796500Y-129106873D01*
X140796499Y-127311128D01*
X140790091Y-127251517D01*
X140789525Y-127250000D01*
X140739797Y-127116671D01*
X140739793Y-127116664D01*
X140653547Y-127001455D01*
X140653544Y-127001452D01*
X140538335Y-126915206D01*
X140538328Y-126915202D01*
X140403482Y-126864908D01*
X140403483Y-126864908D01*
X140343883Y-126858501D01*
X140343881Y-126858500D01*
X140343873Y-126858500D01*
X140343864Y-126858500D01*
X138548129Y-126858500D01*
X138548123Y-126858501D01*
X138488517Y-126864908D01*
X138470831Y-126871505D01*
X138401139Y-126876488D01*
X138339817Y-126843001D01*
X138306333Y-126781677D01*
X138303500Y-126755322D01*
X138303500Y-121460500D01*
X138323185Y-121393461D01*
X138375989Y-121347706D01*
X138427500Y-121336500D01*
X163324500Y-121336500D01*
X163391539Y-121356185D01*
G37*
%TD.AperFunction*%
%TA.AperFunction,Conductor*%
G36*
X155138250Y-127935409D02*
G01*
X155172569Y-127959659D01*
X156183181Y-128970271D01*
X156216666Y-129031594D01*
X156219500Y-129057952D01*
X156219500Y-131469477D01*
X156199815Y-131536516D01*
X156147011Y-131582271D01*
X156077853Y-131592215D01*
X156014297Y-131563190D01*
X156007819Y-131557158D01*
X155996345Y-131545684D01*
X155847124Y-131453643D01*
X155847119Y-131453641D01*
X155680697Y-131398494D01*
X155680690Y-131398493D01*
X155577986Y-131388000D01*
X155428000Y-131388000D01*
X155428000Y-133787999D01*
X155577972Y-133787999D01*
X155577986Y-133787998D01*
X155680697Y-133777505D01*
X155847119Y-133722358D01*
X155847124Y-133722356D01*
X155996345Y-133630315D01*
X156007819Y-133618842D01*
X156069142Y-133585357D01*
X156138834Y-133590341D01*
X156194767Y-133632213D01*
X156219184Y-133697677D01*
X156219500Y-133706523D01*
X156219500Y-134136477D01*
X156199815Y-134203516D01*
X156147011Y-134249271D01*
X156077853Y-134259215D01*
X156014297Y-134230190D01*
X156007819Y-134224158D01*
X155996345Y-134212684D01*
X155847124Y-134120643D01*
X155847119Y-134120641D01*
X155680697Y-134065494D01*
X155680690Y-134065493D01*
X155577986Y-134055000D01*
X155428000Y-134055000D01*
X155428000Y-138867999D01*
X155577972Y-138867999D01*
X155577986Y-138867998D01*
X155680697Y-138857505D01*
X155847119Y-138802358D01*
X155847124Y-138802356D01*
X155996345Y-138710315D01*
X156007819Y-138698842D01*
X156069142Y-138665357D01*
X156138834Y-138670341D01*
X156194767Y-138712213D01*
X156219184Y-138777677D01*
X156219500Y-138786523D01*
X156219500Y-139216477D01*
X156199815Y-139283516D01*
X156147011Y-139329271D01*
X156077853Y-139339215D01*
X156014297Y-139310190D01*
X156007819Y-139304158D01*
X155996345Y-139292684D01*
X155847124Y-139200643D01*
X155847119Y-139200641D01*
X155680697Y-139145494D01*
X155680690Y-139145493D01*
X155577986Y-139135000D01*
X155428000Y-139135000D01*
X155428000Y-142874000D01*
X155408315Y-142941039D01*
X155355511Y-142986794D01*
X155304000Y-142998000D01*
X155052000Y-142998000D01*
X154984961Y-142978315D01*
X154939206Y-142925511D01*
X154928000Y-142874000D01*
X154928000Y-139135000D01*
X154778027Y-139135000D01*
X154778012Y-139135001D01*
X154675302Y-139145494D01*
X154508880Y-139200641D01*
X154508875Y-139200643D01*
X154359657Y-139292682D01*
X154266034Y-139386305D01*
X154204710Y-139419789D01*
X154135019Y-139414805D01*
X154090672Y-139386304D01*
X153996657Y-139292289D01*
X153996656Y-139292288D01*
X153847334Y-139200186D01*
X153680797Y-139145001D01*
X153680795Y-139145000D01*
X153578010Y-139134500D01*
X152777998Y-139134500D01*
X152777980Y-139134501D01*
X152675203Y-139145000D01*
X152675200Y-139145001D01*
X152508668Y-139200185D01*
X152508663Y-139200187D01*
X152359342Y-139292289D01*
X152235289Y-139416342D01*
X152143187Y-139565663D01*
X152143186Y-139565666D01*
X152126342Y-139616500D01*
X152123689Y-139624505D01*
X152083916Y-139681949D01*
X152019400Y-139708772D01*
X152005983Y-139709500D01*
X149873017Y-139709500D01*
X149805978Y-139689815D01*
X149760223Y-139637011D01*
X149755311Y-139624505D01*
X149735814Y-139565666D01*
X149643712Y-139416344D01*
X149519656Y-139292288D01*
X149370334Y-139200186D01*
X149203797Y-139145001D01*
X149203795Y-139145000D01*
X149101010Y-139134500D01*
X148350998Y-139134500D01*
X148350980Y-139134501D01*
X148248203Y-139145000D01*
X148248200Y-139145001D01*
X148081668Y-139200185D01*
X148081663Y-139200187D01*
X147932342Y-139292289D01*
X147808285Y-139416346D01*
X147806537Y-139419182D01*
X147804829Y-139420717D01*
X147803807Y-139422011D01*
X147803585Y-139421836D01*
X147754589Y-139465905D01*
X147685626Y-139477126D01*
X147621544Y-139449282D01*
X147595463Y-139419182D01*
X147593714Y-139416346D01*
X147469657Y-139292289D01*
X147469656Y-139292288D01*
X147320334Y-139200186D01*
X147153797Y-139145001D01*
X147153795Y-139145000D01*
X147051016Y-139134500D01*
X146367174Y-139134500D01*
X146300135Y-139114815D01*
X146254380Y-139062011D01*
X146244436Y-138992853D01*
X146273461Y-138929297D01*
X146294283Y-138910186D01*
X146316440Y-138894088D01*
X146321315Y-138890887D01*
X146329978Y-138885765D01*
X146393095Y-138868499D01*
X147051002Y-138868499D01*
X147051008Y-138868499D01*
X147153797Y-138857999D01*
X147320334Y-138802814D01*
X147469656Y-138710712D01*
X147593712Y-138586656D01*
X147595461Y-138583819D01*
X147597169Y-138582283D01*
X147598193Y-138580989D01*
X147598414Y-138581163D01*
X147647406Y-138537096D01*
X147716368Y-138525872D01*
X147780451Y-138553713D01*
X147806537Y-138583817D01*
X147808288Y-138586656D01*
X147932344Y-138710712D01*
X148081666Y-138802814D01*
X148248203Y-138857999D01*
X148350991Y-138868500D01*
X149101008Y-138868499D01*
X149101016Y-138868498D01*
X149101019Y-138868498D01*
X149157302Y-138862748D01*
X149203797Y-138857999D01*
X149370334Y-138802814D01*
X149519656Y-138710712D01*
X149643712Y-138586656D01*
X149709865Y-138479403D01*
X149761813Y-138432679D01*
X149815404Y-138420500D01*
X152063596Y-138420500D01*
X152130635Y-138440185D01*
X152169135Y-138479404D01*
X152233162Y-138583210D01*
X152235288Y-138586656D01*
X152359344Y-138710712D01*
X152508666Y-138802814D01*
X152675203Y-138857999D01*
X152777991Y-138868500D01*
X153578008Y-138868499D01*
X153578016Y-138868498D01*
X153578019Y-138868498D01*
X153634302Y-138862748D01*
X153680797Y-138857999D01*
X153847334Y-138802814D01*
X153996656Y-138710712D01*
X154090675Y-138616692D01*
X154151994Y-138583210D01*
X154221686Y-138588194D01*
X154266034Y-138616695D01*
X154359654Y-138710315D01*
X154508875Y-138802356D01*
X154508880Y-138802358D01*
X154675302Y-138857505D01*
X154675309Y-138857506D01*
X154778019Y-138867999D01*
X154927999Y-138867999D01*
X154928000Y-138867998D01*
X154928000Y-134055000D01*
X154927500Y-134055000D01*
X154860461Y-134035315D01*
X154814706Y-133982511D01*
X154803500Y-133931000D01*
X154803500Y-133911999D01*
X154823185Y-133844960D01*
X154875989Y-133799205D01*
X154927500Y-133787999D01*
X154928000Y-133787999D01*
X154928000Y-131388000D01*
X154927500Y-131388000D01*
X154860461Y-131368315D01*
X154814706Y-131315511D01*
X154803500Y-131264000D01*
X154803500Y-128356734D01*
X154823185Y-128289695D01*
X154839814Y-128269058D01*
X154846613Y-128262260D01*
X154932106Y-128120837D01*
X154966503Y-128010448D01*
X155005239Y-127952303D01*
X155069264Y-127924328D01*
X155138250Y-127935409D01*
G37*
%TD.AperFunction*%
%TA.AperFunction,Conductor*%
G36*
X152219802Y-124494685D02*
G01*
X152265557Y-124547489D01*
X152275501Y-124616647D01*
X152263362Y-124650599D01*
X152264972Y-124651324D01*
X152261895Y-124658160D01*
X152261894Y-124658162D01*
X152261894Y-124658163D01*
X152212731Y-124815936D01*
X152206500Y-124884502D01*
X152206500Y-125354498D01*
X152212731Y-125423064D01*
X152245506Y-125528246D01*
X152261894Y-125580838D01*
X152328096Y-125690351D01*
X152345932Y-125757906D01*
X152328096Y-125818649D01*
X152261894Y-125928161D01*
X152244272Y-125984714D01*
X152212731Y-126085936D01*
X152206500Y-126154502D01*
X152206500Y-126624498D01*
X152212731Y-126693064D01*
X152224113Y-126729590D01*
X152261894Y-126850838D01*
X152328096Y-126960351D01*
X152345932Y-127027906D01*
X152328096Y-127088649D01*
X152261894Y-127198161D01*
X152229118Y-127303345D01*
X152212731Y-127355936D01*
X152206500Y-127424502D01*
X152206500Y-127894498D01*
X152212731Y-127963064D01*
X152215434Y-127971737D01*
X152261894Y-128120838D01*
X152347382Y-128262254D01*
X152347386Y-128262259D01*
X152464240Y-128379113D01*
X152464245Y-128379117D01*
X152605661Y-128464605D01*
X152605663Y-128464606D01*
X152763436Y-128513769D01*
X152832002Y-128520000D01*
X153428500Y-128520000D01*
X153495539Y-128539685D01*
X153541294Y-128592489D01*
X153552500Y-128644000D01*
X153552500Y-131263500D01*
X153532815Y-131330539D01*
X153480011Y-131376294D01*
X153428500Y-131387500D01*
X152777998Y-131387500D01*
X152777980Y-131387501D01*
X152675203Y-131398000D01*
X152675200Y-131398001D01*
X152508668Y-131453185D01*
X152508663Y-131453187D01*
X152359342Y-131545289D01*
X152235289Y-131669342D01*
X152143187Y-131818663D01*
X152143186Y-131818666D01*
X152123689Y-131877505D01*
X152083916Y-131934949D01*
X152019400Y-131961772D01*
X152005983Y-131962500D01*
X149873017Y-131962500D01*
X149805978Y-131942815D01*
X149760223Y-131890011D01*
X149755311Y-131877505D01*
X149735814Y-131818666D01*
X149643712Y-131669344D01*
X149519656Y-131545288D01*
X149370334Y-131453186D01*
X149203797Y-131398001D01*
X149203795Y-131398000D01*
X149101010Y-131387500D01*
X148350998Y-131387500D01*
X148350989Y-131387501D01*
X148338097Y-131388818D01*
X148269404Y-131376045D01*
X148218522Y-131328162D01*
X148201500Y-131265459D01*
X148201500Y-128643500D01*
X148221185Y-128576461D01*
X148273989Y-128530706D01*
X148325500Y-128519500D01*
X149423447Y-128519500D01*
X149423447Y-128519499D01*
X148651128Y-127747180D01*
X148617643Y-127685857D01*
X148622627Y-127616165D01*
X148651128Y-127571818D01*
X148829319Y-127393628D01*
X148890642Y-127360143D01*
X148960334Y-127365127D01*
X149004681Y-127393628D01*
X150012253Y-128401200D01*
X150012255Y-128401201D01*
X150049443Y-128378720D01*
X150049448Y-128378716D01*
X150166216Y-128261948D01*
X150166219Y-128261944D01*
X150251645Y-128120631D01*
X150251648Y-128120623D01*
X150300773Y-127962975D01*
X150307000Y-127894455D01*
X150307000Y-127424544D01*
X150300773Y-127356024D01*
X150251648Y-127198376D01*
X150251646Y-127198372D01*
X150185610Y-127089133D01*
X150167774Y-127021578D01*
X150185608Y-126960836D01*
X150252106Y-126850837D01*
X150301269Y-126693064D01*
X150307500Y-126624498D01*
X150307500Y-126154502D01*
X150301269Y-126085936D01*
X150252106Y-125928163D01*
X150185902Y-125818649D01*
X150168067Y-125751095D01*
X150185903Y-125690350D01*
X150252106Y-125580837D01*
X150301269Y-125423064D01*
X150307500Y-125354498D01*
X150307500Y-124884502D01*
X150301269Y-124815936D01*
X150252106Y-124658163D01*
X150252103Y-124658158D01*
X150249028Y-124651324D01*
X150251685Y-124650127D01*
X150237283Y-124595616D01*
X150258790Y-124529139D01*
X150312823Y-124484842D01*
X150361237Y-124475000D01*
X152152763Y-124475000D01*
X152219802Y-124494685D01*
G37*
%TD.AperFunction*%
%TD*%
M02*
