%TF.GenerationSoftware,KiCad,Pcbnew,7.0.8*%
%TF.CreationDate,2024-10-03T16:47:23-07:00*%
%TF.ProjectId,lab6PCB,6c616236-5043-4422-9e6b-696361645f70,v01*%
%TF.SameCoordinates,Original*%
%TF.FileFunction,Soldermask,Top*%
%TF.FilePolarity,Negative*%
%FSLAX46Y46*%
G04 Gerber Fmt 4.6, Leading zero omitted, Abs format (unit mm)*
G04 Created by KiCad (PCBNEW 7.0.8) date 2024-10-03 16:47:23*
%MOMM*%
%LPD*%
G01*
G04 APERTURE LIST*
G04 Aperture macros list*
%AMRoundRect*
0 Rectangle with rounded corners*
0 $1 Rounding radius*
0 $2 $3 $4 $5 $6 $7 $8 $9 X,Y pos of 4 corners*
0 Add a 4 corners polygon primitive as box body*
4,1,4,$2,$3,$4,$5,$6,$7,$8,$9,$2,$3,0*
0 Add four circle primitives for the rounded corners*
1,1,$1+$1,$2,$3*
1,1,$1+$1,$4,$5*
1,1,$1+$1,$6,$7*
1,1,$1+$1,$8,$9*
0 Add four rect primitives between the rounded corners*
20,1,$1+$1,$2,$3,$4,$5,0*
20,1,$1+$1,$4,$5,$6,$7,0*
20,1,$1+$1,$6,$7,$8,$9,0*
20,1,$1+$1,$8,$9,$2,$3,0*%
G04 Aperture macros list end*
%ADD10RoundRect,0.230800X-0.710000X-0.180000X0.710000X-0.180000X0.710000X0.180000X-0.710000X0.180000X0*%
%ADD11RoundRect,0.300800X-0.350000X-0.450000X0.350000X-0.450000X0.350000X0.450000X-0.350000X0.450000X0*%
%ADD12RoundRect,0.050800X-0.850000X-0.850000X0.850000X-0.850000X0.850000X0.850000X-0.850000X0.850000X0*%
%ADD13O,1.801600X1.801600*%
%ADD14RoundRect,0.300800X0.325000X0.450000X-0.325000X0.450000X-0.325000X-0.450000X0.325000X-0.450000X0*%
G04 APERTURE END LIST*
D10*
%TO.C,U1*%
X148917000Y-123849500D03*
X148917000Y-125119500D03*
X148917000Y-126389500D03*
X148917000Y-127659500D03*
X153597000Y-127659500D03*
X153597000Y-126389500D03*
X153597000Y-125119500D03*
X153597000Y-123849500D03*
%TD*%
D11*
%TO.C,R5*%
X155178000Y-137668000D03*
X153178000Y-137668000D03*
%TD*%
%TO.C,R4*%
X153178000Y-140335000D03*
X155178000Y-140335000D03*
%TD*%
%TO.C,R3*%
X153178000Y-132588000D03*
X155178000Y-132588000D03*
%TD*%
%TO.C,R2*%
X155178000Y-135255000D03*
X153178000Y-135255000D03*
%TD*%
%TO.C,R1*%
X155178000Y-142748000D03*
X153178000Y-142748000D03*
%TD*%
D12*
%TO.C,J2*%
X162306000Y-128209000D03*
D13*
X162306000Y-130749000D03*
X162306000Y-133289000D03*
X162306000Y-135829000D03*
X162306000Y-138369000D03*
X162306000Y-140909000D03*
X162306000Y-143449000D03*
X162306000Y-145989000D03*
%TD*%
D12*
%TO.C,J1*%
X139446000Y-128209000D03*
D13*
X139446000Y-130749000D03*
X139446000Y-133289000D03*
X139446000Y-135829000D03*
X139446000Y-138369000D03*
X139446000Y-140909000D03*
X139446000Y-143449000D03*
X139446000Y-145989000D03*
%TD*%
D14*
%TO.C,D5*%
X146676000Y-137668000D03*
X148726000Y-137668000D03*
%TD*%
%TO.C,D4*%
X146676000Y-140335000D03*
X148726000Y-140335000D03*
%TD*%
%TO.C,D3*%
X146676000Y-132588000D03*
X148726000Y-132588000D03*
%TD*%
%TO.C,D2*%
X146676000Y-135255000D03*
X148726000Y-135255000D03*
%TD*%
%TO.C,D1*%
X148726000Y-142748000D03*
X146676000Y-142748000D03*
%TD*%
M02*
